# xmcd
#
# Track frame offsets:
#	150
#	18144
#	39096
#	52100
#	71181
#	87630
#	103846
#	116292
#	138000
#	156277
#	177077
#	194411
#
# Disc length: 2777 seconds
#
# Revision: 0
# Processed by: cddbd v1.4PL0 Copyright (c) Steve Scherf et al.
# Submitted via: audiograbber 1.81.01
#
DISCID=9d0ad70c
DTITLE=Gary Goldsworthy - Blue Eyed Blues
DYEAR=2002
DGENRE=Blues
TTITLE0=Wish You Would
TTITLE1=Shadow
TTITLE2=Treat Her Right
TTITLE3=High Expectations
TTITLE4=God Shaped Hole
TTITLE5=Scream and Shout
TTITLE6=Seventh Son
TTITLE7=Shame On You
TTITLE8=Fern River
TTITLE9=Ojos De Ozul
TTITLE10=Now I Believe Her
TTITLE11=Those Memories
EXTD=
EXTT0=
EXTT1=
EXTT2=
EXTT3=
EXTT4=
EXTT5=
EXTT6=
EXTT7=
EXTT8=
EXTT9=
EXTT10=
EXTT11=
PLAYORDER=
